<svg height="512" viewBox="0 0 512 512" width="512" xmlns="http://www.w3.org/2000/svg"><g><g><path d="m312 328 104.81 22.06a80.021 80.021 0 0 1 60.44 56.31l18.75 89.63h-480l18.75-89.63a80.021 80.021 0 0 1 60.44-56.31l104.81-22.06" fill="#cca400"/><path d="m312 328a56 56 0 0 1 -112 0v-24h112z" fill="#ffdaaa"/><path d="m296 440h80v56h-80z" fill="#ab2300"/><g fill="#ffdaaa"><path d="m352 168v72a72 72 0 0 1 -72 72h-48a72 72 0 0 1 -72-72v-72"/><path d="m148 168h12a0 0 0 0 1 0 0v64a0 0 0 0 1 0 0h-12a20 20 0 0 1 -20-20v-24a20 20 0 0 1 20-20z"/><path d="m372 168h12a0 0 0 0 1 0 0v64a0 0 0 0 1 0 0h-12a20 20 0 0 1 -20-20v-24a20 20 0 0 1 20-20z" transform="matrix(-1 0 0 -1 736 400)"/></g><path d="m256 16a112 112 0 0 1 112 112v40a0 0 0 0 1 0 0h-224a0 0 0 0 1 0 0v-40a112 112 0 0 1 112-112z" fill="#d80027"/><path d="m208 136h64a16 16 0 0 1 16 16 16 16 0 0 1 -16 16h-64a0 0 0 0 1 0 0v-32a0 0 0 0 1 0 0z" fill="#2d2d30"/><path d="m240 104a32 32 0 0 1 32 32 0 0 0 0 1 0 0h-64a0 0 0 0 1 0 0 32 32 0 0 1 32-32z" fill="#ffdaaa"/><path d="m368 128h72a40 40 0 0 1 40 40 0 0 0 0 1 0 0h-112a0 0 0 0 1 0 0v-40a0 0 0 0 1 0 0z" fill="#ab2300"/></g><g><path d="m503.83 494.36-18.75-89.63a5.728 5.728 0 0 0 -.14-.56 87.824 87.824 0 0 0 -66.48-61.94l-98.46-20.72v-12.27a80.03 80.03 0 0 0 40-69.24h4a28.031 28.031 0 0 0 28-28v-24a27.75 27.75 0 0 0 -2.71-12h90.71a8 8 0 0 0 8-8 48.051 48.051 0 0 0 -48-48h-64.27a120 120 0 0 0 -239.73 8v34.71a28.026 28.026 0 0 0 -16 25.29v24a28.031 28.031 0 0 0 28 28h4a80.03 80.03 0 0 0 40 69.24v12.27l-98.46 20.72a87.824 87.824 0 0 0 -66.48 61.94 5.728 5.728 0 0 0 -.14.56l-18.75 89.63a8 8 0 0 0 7.83 9.64h480a8 8 0 0 0 7.83-9.64zm-127.83-358.36h64a32.058 32.058 0 0 1 30.99 24h-94.99zm0 52v24a12.01 12.01 0 0 1 -12 12h-4v-48h4a12.01 12.01 0 0 1 12 12zm-224 36h-4a12.01 12.01 0 0 1 -12-12v-24a12.01 12.01 0 0 1 12-12h4zm0-64v-32a104 104 0 0 1 208 0v32h-65.38a23.98 23.98 0 0 0 -15.21-30.83 40 40 0 0 0 -79.41 6.83v24zm120-16a8 8 0 0 1 0 16h-56v-16zm-54.63-16a24 24 0 0 1 45.26 0zm-49.37 112v-64h176v64a64.072 64.072 0 0 1 -64 64h-48a64.072 64.072 0 0 1 -64-64zm136 76.32v11.68a48 48 0 0 1 -96 0v-11.68a79.673 79.673 0 0 0 24 3.68h48a79.673 79.673 0 0 0 24-3.68zm64 171.68h-64v-40h64zm48 0v-48a8 8 0 0 0 -16 0v48h-16v-48a8 8 0 0 0 -8-8h-80a8 8 0 0 0 -8 8v48h-176v-48a8 8 0 0 0 -16 0v48h-70.15l16.67-79.7a71.827 71.827 0 0 1 54.32-50.41l95.9-20.19a64 64 0 0 0 126.52 0l95.9 20.19a71.827 71.827 0 0 1 54.32 50.41l16.67 79.7z"/><circle cx="208" cy="192" r="16"/><circle cx="304" cy="192" r="16"/><path d="m296 264a8 8 0 0 0 -8-8h-64a8 8 0 0 0 0 16h64a8 8 0 0 0 8-8z"/></g></g></svg>