<svg height="512" viewBox="0 0 512 512" width="512" xmlns="http://www.w3.org/2000/svg"><g><g><path d="m128 226.02a144 144 0 1 1 256 0" fill="#2d2d30"/><path d="m352 192v72a72.006 72.006 0 0 1 -72 72h-48a72.006 72.006 0 0 1 -72-72v-72l.63-1 24.37-39 71 24 72-24 23.4 39z" fill="#a78966"/><path d="m160 191h.63l-.63 1z" fill="#a78966"/><path d="m352 191v1l-.6-1z" fill="#a78966"/><path d="m408 372.21v123.79h-304v-123.79l43.31-9.12a112.02 112.02 0 0 0 217.38 0z" fill="#003f8a"/><g fill="#a78966"><path d="m95.19 374.06 8.81-1.85v123.79h-88l18.75-65.63a80.021 80.021 0 0 1 60.44-56.31z"/><path d="m496 496h-88v-123.79l8.81 1.85a80.021 80.021 0 0 1 60.44 56.31z"/><path d="m148 192h12a0 0 0 0 1 0 0v64a0 0 0 0 1 0 0h-12a20 20 0 0 1 -20-20v-24a20 20 0 0 1 20-20z"/><path d="m372 192h12a0 0 0 0 1 0 0v64a0 0 0 0 1 0 0h-12a20 20 0 0 1 -20-20v-24a20 20 0 0 1 20-20z" transform="matrix(-1 0 0 -1 736 448)"/></g><circle cx="216" cy="224" fill="#ffdaaa" r="16"/><circle cx="296" cy="224" fill="#ffdaaa" r="16"/><path d="m364.69 363.09a112.02 112.02 0 0 1 -217.38 0l52.69-11.09v-24h112v24z" fill="#a78966"/></g><g><path d="m503.69 493.8-18.75-65.63a87.824 87.824 0 0 0 -66.48-61.94l-98.46-20.72v-12.27a80.03 80.03 0 0 0 40-69.24h4a28.031 28.031 0 0 0 28-28v-8.1a150.149 150.149 0 0 0 16-67.9c0-83.81-68.19-152-152-152s-152 68.19-152 152a150.149 150.149 0 0 0 16 67.9v8.1a28.031 28.031 0 0 0 28 28h4a80.03 80.03 0 0 0 40 69.24v12.27l-98.46 20.72a87.824 87.824 0 0 0 -66.48 61.94l-18.75 65.63a7.992 7.992 0 0 0 7.69 10.2h480a7.992 7.992 0 0 0 7.69-10.2zm-127.69-257.8a12.01 12.01 0 0 1 -12 12h-4v-48h4a12.01 12.01 0 0 1 12 12zm-224 12h-4a12.01 12.01 0 0 1 -12-12v-24a12.01 12.01 0 0 1 12-12h4zm-4-64a28 28 0 0 0 -23.14 12.25 135.691 135.691 0 0 1 -4.86-36.25c0-74.99 61.01-136 136-136s136 61.01 136 136a135.691 135.691 0 0 1 -4.86 36.25 28 28 0 0 0 -23.14-12.25h-7.47l-21.67-36.12a8 8 0 0 0 -9.39-3.47l-69.45 23.15-68.46-23.14a7.994 7.994 0 0 0 -9.34 3.34l-22.65 36.24zm20 80v-69.71l20.43-32.69 65.01 21.98a7.988 7.988 0 0 0 5.09.01l65.91-21.97 19.56 32.6v69.78a64.072 64.072 0 0 1 -64 64h-48a64.072 64.072 0 0 1 -64-64zm33.65 95.83a8 8 0 0 0 6.35-7.8v-11.71a79.673 79.673 0 0 0 24 3.68h48a79.673 79.673 0 0 0 24-3.68v11.71a8 8 0 0 0 6.35 7.8l44.25 9.31a104.03 104.03 0 0 1 -197.2 0zm-105.65 128.17h-69.39l15.83-55.43a71.862 71.862 0 0 1 53.56-50.49zm304 0h-288v-109.3l29.67-6.25a120 120 0 0 0 228.66 0l29.67 6.25zm16 0v-105.92a71.862 71.862 0 0 1 53.56 50.49l15.83 55.43z"/><path d="m280 312a8 8 0 0 0 0-16h-48a8 8 0 0 0 0 16z"/><path d="m232 224h8a8 8 0 0 0 0-16h-48a8 8 0 0 0 0 16h8a16 16 0 0 0 32 0z"/><path d="m272 224h8a16 16 0 0 0 32 0h8a8 8 0 0 0 0-16h-48a8 8 0 0 0 0 16z"/><path d="m240 264a8 8 0 0 0 8 8h16a8 8 0 0 0 0-16h-16a8 8 0 0 0 -8 8z"/></g></g></svg>