<?xml version="1.0"?>
<svg xmlns="http://www.w3.org/2000/svg" width="512" height="512" viewBox="0 0 512 512"><g><g><circle cx="144" cy="232" r="80" fill="#5f4d37"/><circle cx="368" cy="232" r="80" fill="#5f4d37"/><g><path d="M136.21,104c18.25-51.42,65-88,119.79-88,35.34,0,67.34,15.22,90.51,39.83A137.342,137.342,0,0,1,375.8,104Z" fill="#5f4d37"/><g><path d="M352,353.39V376a96,96,0,0,1-192,0V353.39L208,344V311.83C224.39,322.07,241.72,328,256,328s31.61-5.93,48-16.17V344Z" fill="#ffbcab"/><path d="M360,160v64c0,28.9-16.2,55.04-37.39,73.88A138.71,138.71,0,0,1,304,311.83C287.61,322.07,270.28,328,256,328s-31.61-5.93-48-16.17a138.71,138.71,0,0,1-18.61-13.95c-.13-.11-.26-.22-.39-.34-20.67-18.53-36.5-44.01-36.99-72.2v-.31c-.01-.34-.01-.69-.01-1.03V160Z" fill="#ffbcab"/><path d="M392,361.21V496H120V361.21l40-7.82V376a96,96,0,0,0,192,0V353.39Z" fill="#ff9811"/><path d="M95.19,366.06,120,361.21V496H16l18.75-73.63A80.021,80.021,0,0,1,95.19,366.06Z" fill="#ffbcab"/><path d="M496,496H392V361.21l24.81,4.85a80.021,80.021,0,0,1,60.44,56.31Z" fill="#ffbcab"/><circle cx="208" cy="192" r="16" fill="#ffdaaa"/><circle cx="304" cy="192" r="16" fill="#ffdaaa"/></g><path d="M380.01,176.029h12a0,0,0,0,1,0,0v64a0,0,0,0,1,0,0h-12a20,20,0,0,1-20-20v-24A20,20,0,0,1,380.01,176.029Z" transform="translate(751.967 416.154) rotate(-179.985)" fill="#ffbcab"/><path d="M140.005,176.029h12a0,0,0,0,1,0,0v64a0,0,0,0,1,0,0h-12a20,20,0,0,1-20-20v-24A20,20,0,0,1,140.005,176.029Z" fill="#ffbcab"/></g><rect x="128" y="104" width="256" height="48" fill="#ff9811"/></g><g><path d="M503.75,494.03,485,420.4c-.02-.08-.04-.15-.06-.23a87.824,87.824,0,0,0-66.48-61.94c-.04-.01-.08-.01-.12-.02L312,337.41v-21.3a148.639,148.639,0,0,0,13.09-9.88,88.009,88.009,0,1,0,68.6-161.19,7.769,7.769,0,0,0-1.69-.33V104a8,8,0,0,0-8-8h-2.68a143.849,143.849,0,0,0-28.99-45.65C326.62,23.04,292.41,8,256,8a130.061,130.061,0,0,0-78.39,26.31A142.454,142.454,0,0,0,130.68,96H128a8,8,0,0,0-8,8v40.67a8.049,8.049,0,0,0-2.4.37,88.006,88.006,0,1,0,69.02,160.95A146.819,146.819,0,0,0,200,316.11v21.3L93.66,358.21c-.04.01-.08.01-.12.02a87.824,87.824,0,0,0-66.48,61.94c-.02.08-.04.15-.06.23L8.25,494.03A7.99,7.99,0,0,0,16,504H496a7.99,7.99,0,0,0,7.75-9.97ZM388.09,160a7.706,7.706,0,0,0,.8.3,72.012,72.012,0,1,1-51.5,134.21c12.41-13.31,22.28-29.15,27.2-46.48h7.42a28.041,28.041,0,0,0,28-27.99v-24a27.98,27.98,0,0,0-27.99-28.01H368V160ZM368,232.03l.02-48h4a12,12,0,0,1,11.99,12v24a12.022,12.022,0,0,1-12,12ZM187.19,47.12A114.231,114.231,0,0,1,256,24c31.96,0,62.03,13.25,84.68,37.31A129.7,129.7,0,0,1,363.92,96H148.09A125.937,125.937,0,0,1,187.19,47.12ZM136,112H376v32H136Zm8.01,112.57v7.46h-4a12.018,12.018,0,0,1-12-12l-.01-24a12.01,12.01,0,0,1,12-12h4V224C144,224.19,144.01,224.38,144.01,224.57ZM144,301a72.009,72.009,0,0,1-21.6-140.7,7.706,7.706,0,0,0,.8-.3H144v8.03h-4a28,28,0,0,0-28,28.01l.01,24a28.029,28.029,0,0,0,28,27.99h7.4c4.89,17.23,14.68,32.98,26.98,46.25A71.954,71.954,0,0,1,144,301Zm50.34-9.42c-29.22-26.18-34.13-52.62-34.33-66.64L160,187.32V160H352v64c0,13.75-4.46,40.8-34.34,67.58C298.4,308.84,274.19,320,256,320S213.6,308.84,194.34,291.58ZM168,359.97l41.54-8.12a8.011,8.011,0,0,0,6.46-7.83V325.38c13.85,6.81,27.82,10.62,40,10.62s26.15-3.81,40-10.62v18.64a8.011,8.011,0,0,0,6.46,7.83L344,359.97V376a88,88,0,0,1-176,0ZM112,488H26.29l16.18-63.54A71.854,71.854,0,0,1,96.79,373.9L112,370.92Zm272,0H128V367.8l24-4.7V376a104,104,0,0,0,208,0V363.1l24,4.7Zm16,0V370.92l15.21,2.98a71.854,71.854,0,0,1,54.32,50.56L485.71,488Z"/><path d="M272,272a8,8,0,0,0-8-8H248a8,8,0,0,0,0,16h16A8,8,0,0,0,272,272Z"/><circle cx="208" cy="192" r="16"/><circle cx="304" cy="192" r="16"/></g></g></svg>
